<svg width="34" height="32" viewBox="0 0 34 32" fill="none" xmlns="http://www.w3.org/2000/svg">
<path d="M12.5 29.1843H21.5C29 29.1843 32 26.4659 32 19.6698V11.5145C32 4.71843 29 2 21.5 2H12.5C5 2 2 4.71843 2 11.5145V19.6698C2 26.4659 5 29.1843 12.5 29.1843Z" stroke="#F52222" stroke-width="4" stroke-linecap="round" stroke-linejoin="round"/>
<path d="M17 20.3495C19.8995 20.3495 22.25 18.2196 22.25 15.5922C22.25 12.9649 19.8995 10.835 17 10.835C14.1005 10.835 11.75 12.9649 11.75 15.5922C11.75 18.2196 14.1005 20.3495 17 20.3495Z" stroke="#F52222" stroke-width="4" stroke-linecap="round" stroke-linejoin="round"/>
<path d="M25.4541 8.79614H25.4715" stroke="#F52222" stroke-width="4" stroke-linecap="round" stroke-linejoin="round"/>
</svg>
