<svg width="146" height="80" viewBox="0 0 146 80" fill="none" xmlns="http://www.w3.org/2000/svg">
<g filter="url(#filter0_d_87_22)">
<path d="M6.05325 31V8.984H11.6213V17.688H13.2533L19.2693 8.984H25.2853L17.7653 19.448L25.3813 31H19.1413L13.2533 21.912H11.6213V31H6.05325ZM36.6963 31.256C35.0536 31.256 33.6883 31.16 32.6003 30.968C31.5123 30.7547 30.6483 30.424 30.0083 29.976C29.3683 29.528 28.8883 28.92 28.5683 28.152C28.2483 27.3627 28.0349 26.392 27.9283 25.24C27.8429 24.0667 27.8003 22.68 27.8003 21.08V8.984H33.3683V22.264C33.3683 23.288 33.3896 24.12 33.4323 24.76C33.4963 25.3787 33.6243 25.848 33.8163 26.168C34.0296 26.488 34.3603 26.7013 34.8083 26.808C35.2776 26.8933 35.9069 26.936 36.6963 26.936C37.4856 26.936 38.1043 26.8933 38.5523 26.808C39.0003 26.7013 39.3203 26.488 39.5123 26.168C39.7256 25.848 39.8536 25.3787 39.8963 24.76C39.9603 24.12 39.9923 23.288 39.9923 22.264V8.984H45.5603V21.08C45.5603 22.68 45.5069 24.0667 45.4003 25.24C45.3149 26.392 45.1123 27.3627 44.7923 28.152C44.4936 28.92 44.0243 29.528 43.3843 29.976C42.7443 30.424 41.8803 30.7547 40.7923 30.968C39.7043 31.16 38.3389 31.256 36.6963 31.256ZM50.022 31V8.984H55.59V17.688H57.222L63.238 8.984H69.254L61.734 19.448L69.35 31H63.11L57.222 21.912H55.59V31H50.022ZM71.897 31V8.984H77.465V31H71.897ZM82.0533 31V8.984H97.4773V13.272H87.6213V17.784H95.9733V22.008H87.6213V26.712H97.4773V31H82.0533ZM106.1 31L99.5075 8.984H105.204L109.748 25.112H109.972L114.484 8.984H120.052L113.46 31H106.1ZM119.381 31L126.357 8.984H133.941L140.949 31H135.317L134.005 26.68H126.165L124.885 31H119.381ZM127.349 22.488H132.789L130.165 13.784H129.941L127.349 22.488ZM26.9605 71V42.104H34.2685V71H26.9605ZM40.2906 71V42.104H60.5346V47.732H47.5986V53.654H58.5606V59.198H47.5986V65.372H60.5346V71H40.2906ZM65.7613 71V42.104H73.0693V65.12H84.3253V71H65.7613ZM89.7653 71V47.984H81.8693V42.104H105.011V47.984H97.0733V71H89.7653ZM119.33 71.336C118.21 71.336 116.992 71.308 115.676 71.252C114.388 71.196 113.114 71.112 111.854 71C110.622 70.888 109.516 70.776 108.536 70.664V65.246C109.572 65.33 110.608 65.414 111.644 65.498C112.708 65.582 113.716 65.638 114.668 65.666C115.62 65.694 116.418 65.708 117.062 65.708C118.406 65.708 119.428 65.666 120.128 65.582C120.828 65.47 121.346 65.316 121.682 65.12C121.906 64.924 122.06 64.714 122.144 64.49C122.256 64.266 122.326 64 122.354 63.692C122.382 63.384 122.396 63.034 122.396 62.642C122.396 62.054 122.354 61.592 122.27 61.256C122.214 60.892 122.074 60.612 121.85 60.416C121.654 60.22 121.346 60.08 120.926 59.996C120.506 59.884 119.96 59.786 119.288 59.702L113.366 58.946C112.218 58.806 111.28 58.526 110.552 58.106C109.824 57.658 109.25 57.07 108.83 56.342C108.41 55.614 108.116 54.76 107.948 53.78C107.78 52.772 107.696 51.652 107.696 50.42C107.696 48.516 107.976 47.004 108.536 45.884C109.096 44.736 109.866 43.868 110.846 43.28C111.854 42.664 113.016 42.258 114.332 42.062C115.676 41.866 117.132 41.768 118.7 41.768C119.82 41.768 120.982 41.81 122.186 41.894C123.39 41.95 124.524 42.048 125.588 42.188C126.652 42.3 127.534 42.44 128.234 42.608V47.9C127.534 47.788 126.708 47.704 125.756 47.648C124.832 47.564 123.866 47.508 122.858 47.48C121.85 47.424 120.898 47.396 120.002 47.396C118.91 47.396 118.042 47.438 117.398 47.522C116.754 47.578 116.25 47.704 115.886 47.9C115.494 48.124 115.242 48.418 115.13 48.782C115.046 49.146 115.004 49.608 115.004 50.168C115.004 50.868 115.06 51.414 115.172 51.806C115.284 52.17 115.536 52.422 115.928 52.562C116.32 52.702 116.922 52.828 117.734 52.94L123.488 53.612C124.272 53.696 124.986 53.836 125.63 54.032C126.302 54.228 126.904 54.536 127.436 54.956C127.996 55.376 128.458 55.978 128.822 56.762C129.018 57.126 129.172 57.574 129.284 58.106C129.396 58.61 129.494 59.198 129.578 59.87C129.662 60.542 129.704 61.298 129.704 62.138C129.704 63.79 129.536 65.19 129.2 66.338C128.864 67.458 128.388 68.354 127.772 69.026C127.156 69.67 126.414 70.174 125.546 70.538C124.678 70.874 123.712 71.084 122.648 71.168C121.612 71.28 120.506 71.336 119.33 71.336Z" fill="black"/>
</g>
<g filter="url(#filter1_d_87_22)">
<path d="M7 35L139 35" stroke="#FF0909" stroke-width="5" stroke-linecap="round"/>
</g>
<defs>
<filter id="filter0_d_87_22" x="2.05322" y="8.98401" width="142.896" height="70.352" filterUnits="userSpaceOnUse" color-interpolation-filters="sRGB">
<feFlood flood-opacity="0" result="BackgroundImageFix"/>
<feColorMatrix in="SourceAlpha" type="matrix" values="0 0 0 0 0 0 0 0 0 0 0 0 0 0 0 0 0 0 127 0" result="hardAlpha"/>
<feOffset dy="4"/>
<feGaussianBlur stdDeviation="2"/>
<feComposite in2="hardAlpha" operator="out"/>
<feColorMatrix type="matrix" values="0 0 0 0 0 0 0 0 0 0 0 0 0 0 0 0 0 0 0.25 0"/>
<feBlend mode="normal" in2="BackgroundImageFix" result="effect1_dropShadow_87_22"/>
<feBlend mode="normal" in="SourceGraphic" in2="effect1_dropShadow_87_22" result="shape"/>
</filter>
<filter id="filter1_d_87_22" x="0.5" y="30.5" width="145" height="13" filterUnits="userSpaceOnUse" color-interpolation-filters="sRGB">
<feFlood flood-opacity="0" result="BackgroundImageFix"/>
<feColorMatrix in="SourceAlpha" type="matrix" values="0 0 0 0 0 0 0 0 0 0 0 0 0 0 0 0 0 0 127 0" result="hardAlpha"/>
<feOffset dy="2"/>
<feGaussianBlur stdDeviation="2"/>
<feComposite in2="hardAlpha" operator="out"/>
<feColorMatrix type="matrix" values="0 0 0 0 0 0 0 0 0 0 0 0 0 0 0 0 0 0 0.5 0"/>
<feBlend mode="normal" in2="BackgroundImageFix" result="effect1_dropShadow_87_22"/>
<feBlend mode="normal" in="SourceGraphic" in2="effect1_dropShadow_87_22" result="shape"/>
</filter>
</defs>
</svg>
